<svg width="40" height="40" viewBox="0 0 40 40" fill="none" xmlns="http://www.w3.org/2000/svg">
<rect width="40" height="40" rx="13" fill="#FFA800"/>
<path d="M27.7011 11.9531C28.0002 19.6667 22.6787 22.3199 22.6787 22.3199C22.6787 22.3199 29.7348 23.408 32.9783 21.3084C36.4879 19.0367 37.904 16.6588 37.997 12.4588C38.0938 8.08609 36.0009 4.75327 32.2213 2.59762C28.7227 0.602313 22.6787 2.3447 22.6787 2.3447C22.6787 2.3447 27.3662 3.31673 27.7011 11.9531Z" fill="black"/>
<path d="M13.0825 11.6667C21.8715 11.6667 22.8761 16.7605 22.8761 16.7605C22.8761 16.7605 23.9567 9.65575 21.8715 6.38986C19.6153 2.8561 17.2537 1.43021 13.0825 1.33658C8.7397 1.2391 5.4297 3.34642 3.28882 7.15216C1.30717 10.6748 3.03762 16.7605 3.03762 16.7605C3.03762 16.7605 4.29351 11.6667 13.0825 11.6667Z" fill="black"/>
<path d="M11.6324 27.1531C11.9303 19.339 16.6548 16.7863 16.6548 16.7863C16.6548 16.7863 9.59869 15.6982 6.35516 17.7978C2.8456 20.0695 1.42948 22.4474 1.33649 26.6474C1.23968 31.0201 3.33257 34.3529 7.11224 36.5086C10.6108 38.5039 16.6548 36.7615 16.6548 36.7615C16.6548 36.7615 11.3333 35 11.6324 27.1531Z" fill="black"/>
<path d="M27.4788 27.6298C19.3337 27.6298 17.183 22.5728 17.183 22.5728C17.183 22.5728 16.1024 29.6775 18.1876 32.9434C20.4438 36.4772 22.8054 37.903 26.9766 37.9967C31.3194 38.0941 34.6294 35.9868 36.7703 32.1811C38.7519 28.6584 37.0215 22.5728 37.0215 22.5728C37.0215 22.5728 35.6754 27.6298 27.4788 27.6298Z" fill="black"/>
</svg>
