<svg width="37" height="37" viewBox="0 0 37 37" fill="none" xmlns="http://www.w3.org/2000/svg">
<path d="M26.3676 10.6199C26.6667 18.3335 21.3452 20.9867 21.3452 20.9867C21.3452 20.9867 28.4013 22.0748 31.6448 19.9752C35.1544 17.7034 36.5705 15.3255 36.6635 11.1256C36.7603 6.75284 34.6674 3.42001 30.8878 1.26437C27.3892 -0.730939 21.3452 1.01144 21.3452 1.01144C21.3452 1.01144 26.0327 1.98348 26.3676 10.6199Z" fill="black"/>
<path d="M11.749 10.3334C20.538 10.3334 21.5426 15.4272 21.5426 15.4272C21.5426 15.4272 22.6232 8.3225 20.538 5.0566C18.2818 1.52284 15.9202 0.096961 11.749 0.00333118C7.40621 -0.0941505 4.0962 2.01317 1.95533 5.8189C-0.0263221 9.34159 1.70413 15.4272 1.70413 15.4272C1.70413 15.4272 2.96001 10.3334 11.749 10.3334Z" fill="black"/>
<path d="M10.2989 25.8198C10.5968 18.0058 15.3213 15.453 15.3213 15.453C15.3213 15.453 8.2652 14.3649 5.02167 16.4645C1.51211 18.7363 0.0959864 21.1142 0.00299835 25.3141C-0.0938158 29.6869 1.99907 33.0197 5.77875 35.1753C9.2773 37.1706 15.3213 35.4283 15.3213 35.4283C15.3213 35.4283 9.99976 33.6667 10.2989 25.8198Z" fill="black"/>
<path d="M26.1453 26.2965C18.0002 26.2965 15.8495 21.2395 15.8495 21.2395C15.8495 21.2395 14.7689 28.3442 16.8541 31.6101C19.1103 35.1439 21.4719 36.5698 25.6431 36.6634C29.9859 36.7609 33.2959 34.6536 35.4368 30.8478C37.4184 27.3252 35.688 21.2395 35.688 21.2395C35.688 21.2395 34.3419 26.2965 26.1453 26.2965Z" fill="black"/>
</svg>
